<svg xmlns="http://www.w3.org/2000/svg" xmlns:xlink="http://www.w3.org/1999/xlink" contentStyleType="text/css" height="324px" preserveAspectRatio="none" style="width:973px;height:324px;background:#FFFFFF;" version="1.1" viewBox="0 0 973 324" width="973px" zoomAndPan="magnify"><defs/><g><!--class Session--><g id="elem_Session"><rect codeLine="11" fill="#F1F1F1" height="137.7813" id="Session" rx="2.5" ry="2.5" style="stroke:#181818;stroke-width:0.5;" width="214.2891" x="15.5" y="7"/><ellipse cx="88.894" cy="23" fill="#FFAAAA" rx="11" ry="11" style="stroke:#181818;stroke-width:1.0;"/><path d="M89.7378,29.75 L87.2847,29.75 L87.2847,19.5 L84.144,19.5 L84.144,17.3594 L92.8784,17.3594 L92.8784,19.5 L89.7378,19.5 L89.7378,29.75 Z " fill="#000000"/><text fill="#FF0000" font-family="Courier" font-size="14" lengthAdjust="spacing" textLength="59.001" x="109.394" y="27.8467">Session</text><line style="stroke:#181818;stroke-width:0.5;" x1="16.5" x2="228.7891" y1="39" y2="39"/><text fill="#FF0000" font-family="Courier" font-size="14" lengthAdjust="spacing" textLength="8.4287" x="21.5" y="55.9951">&#9670;</text><text fill="#000000" font-family="Courier" font-size="14" lengthAdjust="spacing" textLength="168.5742" x="38.3574" y="55.9951">session_id:&#160;&#160;INTEGER</text><text fill="#0000FF" font-family="Courier" font-size="14" lengthAdjust="spacing" textLength="8.4287" x="21.5" y="72.292">&#9671;</text><text fill="#000000" font-family="Courier" font-size="14" lengthAdjust="spacing" textLength="168.5742" x="38.3574" y="72.292">location_id:&#160;INTEGER</text><text fill="#000000" font-family="Courier" font-size="14" lengthAdjust="spacing" textLength="160.1455" x="21.5" y="88.5889">session_date:&#160;&#160;DATE</text><text fill="#000000" font-family="Courier" font-size="14" lengthAdjust="spacing" textLength="202.2891" x="21.5" y="104.8857">start_time:&#160;&#160;&#160;&#160;TIMESTAMP</text><text fill="#000000" font-family="Courier" font-size="14" lengthAdjust="spacing" textLength="202.2891" x="21.5" y="121.1826">end_time:&#160;&#160;&#160;&#160;&#160;&#160;TIMESTAMP</text><text fill="#000000" font-family="Courier" font-size="14" lengthAdjust="spacing" textLength="160.1455" x="21.5" y="137.4795">description:&#160;&#160;&#160;TEXT</text></g><!--class SetToSession--><g id="elem_SetToSession"><rect codeLine="20" fill="#F1F1F1" height="88.8906" id="SetToSession" rx="2.5" ry="2.5" style="stroke:#181818;stroke-width:0.5;" width="189.0029" x="281" y="31.5"/><ellipse cx="321.1363" cy="47.5" fill="#FFAAAA" rx="11" ry="11" style="stroke:#181818;stroke-width:1.0;"/><path d="M321.98,54.25 L319.5269,54.25 L319.5269,44 L316.3863,44 L316.3863,41.8594 L325.1207,41.8594 L325.1207,44 L321.98,44 L321.98,54.25 Z " fill="#000000"/><text fill="#FF0000" font-family="Courier" font-size="14" lengthAdjust="spacing" textLength="101.1445" x="340.7221" y="52.3467">SetToSession</text><line style="stroke:#181818;stroke-width:0.5;" x1="282" x2="469.0029" y1="63.5" y2="63.5"/><text fill="#0000FF" font-family="Courier" font-size="14" lengthAdjust="spacing" textLength="8.4287" x="287" y="80.4951">&#9671;</text><text fill="#000000" font-family="Courier" font-size="14" lengthAdjust="spacing" textLength="160.1455" x="303.8574" y="80.4951">session_id:&#160;INTEGER</text><text fill="#0000FF" font-family="Courier" font-size="14" lengthAdjust="spacing" textLength="8.4287" x="287" y="96.792">&#9671;</text><text fill="#000000" font-family="Courier" font-size="14" lengthAdjust="spacing" textLength="160.1455" x="303.8574" y="96.792">set_id:&#160;&#160;&#160;&#160;&#160;INTEGER</text><text fill="#000000" font-family="Courier" font-size="14" lengthAdjust="spacing" textLength="177.0029" x="287" y="113.0889">set_index:&#160;&#160;&#160;&#160;INTEGER</text></g><!--class Location--><g id="elem_Location"><rect codeLine="26" fill="#F1F1F1" height="105.1875" id="Location" rx="2.5" ry="2.5" style="stroke:#181818;stroke-width:0.5;" width="231.1465" x="7" y="212"/><ellipse cx="84.6084" cy="228" fill="#FFAAAA" rx="11" ry="11" style="stroke:#181818;stroke-width:1.0;"/><path d="M85.4521,234.75 L82.999,234.75 L82.999,224.5 L79.8584,224.5 L79.8584,222.3594 L88.5928,222.3594 L88.5928,224.5 L85.4521,224.5 L85.4521,234.75 Z " fill="#000000"/><text fill="#FF0000" font-family="Courier" font-size="14" lengthAdjust="spacing" textLength="67.4297" x="105.1084" y="232.8467">Location</text><line style="stroke:#181818;stroke-width:0.5;" x1="8" x2="237.1465" y1="244" y2="244"/><text fill="#FF0000" font-family="Courier" font-size="14" lengthAdjust="spacing" textLength="8.4287" x="13" y="260.9951">&#9670;</text><text fill="#000000" font-family="Courier" font-size="14" lengthAdjust="spacing" textLength="168.5742" x="29.8574" y="260.9951">location_id:&#160;INTEGER</text><text fill="#000000" font-family="Courier" font-size="14" lengthAdjust="spacing" textLength="160.1455" x="13" y="277.292">description:&#160;&#160;&#160;TEXT</text><text fill="#000000" font-family="Courier" font-size="14" lengthAdjust="spacing" textLength="219.1465" x="13" y="293.5889">address:&#160;&#160;&#160;&#160;&#160;&#160;&#160;VARCHAR_255</text><text fill="#000000" font-family="Courier" font-size="14" lengthAdjust="spacing" textLength="219.1465" x="13" y="309.8857">url:&#160;&#160;&#160;&#160;&#160;&#160;&#160;&#160;&#160;&#160;&#160;VARCHAR_255</text></g><!--class SetTable--><g id="elem_SetTable"><rect codeLine="33" fill="#F1F1F1" height="72.5938" id="SetTable" rx="2.5" ry="2.5" style="stroke:#181818;stroke-width:0.5;" width="180.5742" x="521.5" y="39.5"/><ellipse cx="573.8223" cy="55.5" fill="#FFAAAA" rx="11" ry="11" style="stroke:#181818;stroke-width:1.0;"/><path d="M574.666,62.25 L572.2129,62.25 L572.2129,52 L569.0723,52 L569.0723,49.8594 L577.8066,49.8594 L577.8066,52 L574.666,52 L574.666,62.25 Z " fill="#000000"/><text fill="#FF0000" font-family="Courier" font-size="14" lengthAdjust="spacing" textLength="67.4297" x="594.3223" y="60.3467">SetTable</text><line style="stroke:#181818;stroke-width:0.5;" x1="522.5" x2="701.0742" y1="71.5" y2="71.5"/><text fill="#FF0000" font-family="Courier" font-size="14" lengthAdjust="spacing" textLength="8.4287" x="527.5" y="88.4951">&#9670;</text><text fill="#000000" font-family="Courier" font-size="14" lengthAdjust="spacing" textLength="151.7168" x="544.3574" y="88.4951">set_id:&#160;&#160;&#160;&#160;INTEGER</text><text fill="#000000" font-family="Courier" font-size="14" lengthAdjust="spacing" textLength="143.2881" x="527.5" y="104.792">description:&#160;TEXT</text></g><!--class TuneToSet--><g id="elem_TuneToSet"><rect codeLine="38" fill="#F1F1F1" height="88.8906" id="TuneToSet" rx="2.5" ry="2.5" style="stroke:#181818;stroke-width:0.5;" width="163.7168" x="753" y="31.5"/><ellipse cx="793.1363" cy="47.5" fill="#FFAAAA" rx="11" ry="11" style="stroke:#181818;stroke-width:1.0;"/><path d="M793.98,54.25 L791.5269,54.25 L791.5269,44 L788.3863,44 L788.3863,41.8594 L797.1207,41.8594 L797.1207,44 L793.98,44 L793.98,54.25 Z " fill="#000000"/><text fill="#FF0000" font-family="Courier" font-size="14" lengthAdjust="spacing" textLength="75.8584" x="812.7221" y="52.3467">TuneToSet</text><line style="stroke:#181818;stroke-width:0.5;" x1="754" x2="915.7168" y1="63.5" y2="63.5"/><text fill="#0000FF" font-family="Courier" font-size="14" lengthAdjust="spacing" textLength="8.4287" x="759" y="80.4951">&#9671;</text><text fill="#000000" font-family="Courier" font-size="14" lengthAdjust="spacing" textLength="134.8594" x="775.8574" y="80.4951">tune_id:&#160;INTEGER</text><text fill="#0000FF" font-family="Courier" font-size="14" lengthAdjust="spacing" textLength="8.4287" x="759" y="96.792">&#9671;</text><text fill="#000000" font-family="Courier" font-size="14" lengthAdjust="spacing" textLength="134.8594" x="775.8574" y="96.792">set_id:&#160;&#160;INTEGER</text><text fill="#000000" font-family="Courier" font-size="14" lengthAdjust="spacing" textLength="151.7168" x="759" y="113.0889">tune_index:INTEGER</text></g><!--class Tune--><g id="elem_Tune"><rect codeLine="44" fill="#F1F1F1" height="105.1875" id="Tune" rx="2.5" ry="2.5" style="stroke:#181818;stroke-width:0.5;" width="197.4316" x="736" y="212"/><ellipse cx="813.6084" cy="228" fill="#FFAAAA" rx="11" ry="11" style="stroke:#181818;stroke-width:1.0;"/><path d="M814.4521,234.75 L811.999,234.75 L811.999,224.5 L808.8584,224.5 L808.8584,222.3594 L817.5928,222.3594 L817.5928,224.5 L814.4521,224.5 L814.4521,234.75 Z " fill="#000000"/><text fill="#FF0000" font-family="Courier" font-size="14" lengthAdjust="spacing" textLength="33.7148" x="834.1084" y="232.8467">Tune</text><line style="stroke:#181818;stroke-width:0.5;" x1="737" x2="932.4316" y1="244" y2="244"/><text fill="#FF0000" font-family="Courier" font-size="14" lengthAdjust="spacing" textLength="8.4287" x="742" y="260.9951">&#9670;</text><text fill="#000000" font-family="Courier" font-size="14" lengthAdjust="spacing" textLength="134.8594" x="758.8574" y="260.9951">tune_id:&#160;INTEGER</text><text fill="#000000" font-family="Courier" font-size="14" lengthAdjust="spacing" textLength="185.4316" x="742" y="277.292">name:&#160;&#160;&#160;&#160;&#160;&#160;VARCHAR_255</text><text fill="#000000" font-family="Courier" font-size="14" lengthAdjust="spacing" textLength="185.4316" x="742" y="293.5889">abc_path:&#160;&#160;VARCHAR_255</text><text fill="#000000" font-family="Courier" font-size="14" lengthAdjust="spacing" textLength="185.4316" x="742" y="309.8857">key:&#160;&#160;&#160;&#160;&#160;&#160;&#160;VARCHAR_255</text></g><!--link Session to Location--><g id="link_Session_Location"><path codeLine="51" d="M230.5,66.5 C251.52,66.5 272.52,255.5 251.5,255.5 " fill="none" id="Session-to-Location" style="stroke:#181818;stroke-width:1.0;"/><polygon fill="none" points="239.5,255.5,245.5,259.5,251.5,255.5,245.5,251.5,239.5,255.5" style="stroke:#181818;stroke-width:1.0;"/></g><!--reverse link Session to SetToSession--><g id="link_Session_SetToSession"><path codeLine="52" d="M242.5,50.5 C266.95,50.5 255.05,75.5 279.5,75.5 " fill="none" id="Session-backto-SetToSession" style="stroke:#181818;stroke-width:1.0;"/><polygon fill="none" points="230.5,50.5,236.5,54.5,242.5,50.5,236.5,46.5,230.5,50.5" style="stroke:#181818;stroke-width:1.0;"/></g><!--link SetToSession to SetTable--><g id="link_SetToSession_SetTable"><path codeLine="53" d="M471.5,91.5 C493.57,91.5 486.43,83.5 508.5,83.5 " fill="none" id="SetToSession-to-SetTable" style="stroke:#181818;stroke-width:1.0;"/><polygon fill="none" points="520.5,83.5,514.5,79.5,508.5,83.5,514.5,87.5,520.5,83.5" style="stroke:#181818;stroke-width:1.0;"/></g><!--reverse link SetTable to TuneToSet--><g id="link_SetTable_TuneToSet"><path codeLine="54" d="M714.5,83.5 C736.57,83.5 729.43,91.5 751.5,91.5 " fill="none" id="SetTable-backto-TuneToSet" style="stroke:#181818;stroke-width:1.0;"/><polygon fill="none" points="702.5,83.5,708.5,87.5,714.5,83.5,708.5,79.5,702.5,83.5" style="stroke:#181818;stroke-width:1.0;"/></g><!--link TuneToSet to Tune--><g id="link_TuneToSet_Tune"><path codeLine="55" d="M917.5,75.5 C937.59,75.5 966.59,255.5 946.5,255.5 " fill="none" id="TuneToSet-to-Tune" style="stroke:#181818;stroke-width:1.0;"/><polygon fill="none" points="934.5,255.5,940.5,259.5,946.5,255.5,940.5,251.5,934.5,255.5" style="stroke:#181818;stroke-width:1.0;"/></g><!--SRC=[ZLBRQjj047tNLqpeImmnAOMy26CGhjmQcb1i4Vecrjf9lKJQ5RiZi5lwsdn2_gzVqbrTrueCsITfpfdBEJDN79-4H22sp_7wE8CiPyR04HOBk4vkFgpNaNqpM2w3gvPQQb4mVKgVyUGI5fdAbGurykM_rx-Bs_ft2SUU_wGqYfzonD_d5Tg45oyXE0YEK20T53VDZo7KgEXKeWdCiv0bqwnePbmhIIkN2hRr68o8jDXNX9jCoPtuXV3HezZ1M9MJg_302eILghH07GID2piqHYWvWzy1sEVhDGsK2ZuB0JOFIVmbtjOiNsMkCaOzpMTr-PmHsWAVeoHkuiGqfIGA5mL8DlVnBedklzSWIZv0Ov2ZoRGeNJk79_6F9FWpAA54ZUJuWvx9kQJ68BLw0KPYB20v7aCVwPj_QrsOyl6oGrDwN9nnhksqhGVm66rNNwDj-kdkheOhdNVG63vpmtrCBtOGUN6SStEJIg9pbwQS9Gk-rrQVqUJLfhunr3MScdswbsJznOpDOliiBHaTmhUGhHTEUzYUKHXwkuFvN46tvpDae0yt1ceE_aNwM306g2wle5jQ5ml60LUrNqNFyYAjFVMiBjn7_WC0]--></g></svg>