<svg xmlns="http://www.w3.org/2000/svg" xmlns:xlink="http://www.w3.org/1999/xlink" contentStyleType="text/css" height="184px" preserveAspectRatio="none" style="width:1399px;height:184px;background:#FFFFFF;" version="1.1" viewBox="0 0 1399 184" width="1399px" zoomAndPan="magnify"><defs/><g><!--class Location--><g id="elem_Location"><rect codeLine="13" fill="#F1F1F1" height="105.1875" id="Location" rx="2.5" ry="2.5" style="stroke:#181818;stroke-width:0.5;" width="180.5742" x="7" y="23.5"/><ellipse cx="59.3223" cy="39.5" fill="#FFAAAA" rx="11" ry="11" style="stroke:#181818;stroke-width:1.0;"/><path d="M60.166,46.25 L57.7129,46.25 L57.7129,36 L54.5723,36 L54.5723,33.8594 L63.3066,33.8594 L63.3066,36 L60.166,36 L60.166,46.25 Z " fill="#000000"/><text fill="#FF0000" font-family="Courier" font-size="14" lengthAdjust="spacing" textLength="67.4297" x="79.8223" y="44.3467">Location</text><line style="stroke:#181818;stroke-width:0.5;" x1="8" x2="186.5742" y1="55.5" y2="55.5"/><text fill="#FF0000" font-family="Courier" font-size="14" lengthAdjust="spacing" textLength="8.4287" x="13" y="72.4951">&#9670;</text><text fill="#000000" font-family="Courier" font-size="14" lengthAdjust="spacing" textLength="134.8594" x="29.8574" y="72.4951">location_id:&#160;INT</text><text fill="#000000" font-family="Courier" font-size="14" lengthAdjust="spacing" textLength="143.2881" x="13" y="88.792">description:&#160;TEXT</text><text fill="#000000" font-family="Courier" font-size="14" lengthAdjust="spacing" textLength="168.5742" x="13" y="105.0889">address:&#160;VARCHAR_255</text><text fill="#000000" font-family="Courier" font-size="14" lengthAdjust="spacing" textLength="134.8594" x="13" y="121.3857">url:&#160;VARCHAR_255</text></g><!--class Session--><g id="elem_Session"><rect codeLine="19" fill="#F1F1F1" height="137.7813" id="Session" rx="2.5" ry="2.5" style="stroke:#181818;stroke-width:0.5;" width="163.7168" x="263" y="7.5"/><ellipse cx="311.1079" cy="23.5" fill="#FFAAAA" rx="11" ry="11" style="stroke:#181818;stroke-width:1.0;"/><path d="M311.9517,30.25 L309.4985,30.25 L309.4985,20 L306.3579,20 L306.3579,17.8594 L315.0923,17.8594 L315.0923,20 L311.9517,20 L311.9517,30.25 Z " fill="#000000"/><text fill="#FF0000" font-family="Courier" font-size="14" lengthAdjust="spacing" textLength="59.001" x="331.6079" y="28.3467">Session</text><line style="stroke:#181818;stroke-width:0.5;" x1="264" x2="425.7168" y1="39.5" y2="39.5"/><text fill="#FF0000" font-family="Courier" font-size="14" lengthAdjust="spacing" textLength="8.4287" x="269" y="56.4951">&#9670;</text><text fill="#000000" font-family="Courier" font-size="14" lengthAdjust="spacing" textLength="126.4307" x="285.8574" y="56.4951">session_id:&#160;INT</text><text fill="#0000FF" font-family="Courier" font-size="14" lengthAdjust="spacing" textLength="8.4287" x="269" y="72.792">&#9671;</text><text fill="#000000" font-family="Courier" font-size="14" lengthAdjust="spacing" textLength="134.8594" x="285.8574" y="72.792">location_id:&#160;INT</text><text fill="#000000" font-family="Courier" font-size="14" lengthAdjust="spacing" textLength="151.7168" x="269" y="89.0889">session_date:&#160;DATE</text><text fill="#000000" font-family="Courier" font-size="14" lengthAdjust="spacing" textLength="134.8594" x="269" y="105.3857">start_time:&#160;TIME</text><text fill="#000000" font-family="Courier" font-size="14" lengthAdjust="spacing" textLength="118.002" x="269" y="121.6826">end_time:&#160;TIME</text><text fill="#000000" font-family="Courier" font-size="14" lengthAdjust="spacing" textLength="143.2881" x="269" y="137.9795">description:&#160;TEXT</text></g><!--class SetToSession--><g id="elem_SetToSession"><rect codeLine="27" fill="#F1F1F1" height="88.8906" id="SetToSession" rx="2.5" ry="2.5" style="stroke:#181818;stroke-width:0.5;" width="155.2881" x="502" y="7"/><ellipse cx="526.9646" cy="23" fill="#FFAAAA" rx="11" ry="11" style="stroke:#181818;stroke-width:1.0;"/><path d="M527.8083,29.75 L525.3552,29.75 L525.3552,19.5 L522.2146,19.5 L522.2146,17.3594 L530.949,17.3594 L530.949,19.5 L527.8083,19.5 L527.8083,29.75 Z " fill="#000000"/><text fill="#FF0000" font-family="Courier" font-size="14" lengthAdjust="spacing" textLength="101.1445" x="543.179" y="27.8467">SetToSession</text><line style="stroke:#181818;stroke-width:0.5;" x1="503" x2="656.2881" y1="39" y2="39"/><text fill="#0000FF" font-family="Courier" font-size="14" lengthAdjust="spacing" textLength="8.4287" x="508" y="55.9951">&#9671;</text><text fill="#000000" font-family="Courier" font-size="14" lengthAdjust="spacing" textLength="126.4307" x="524.8574" y="55.9951">session_id:&#160;INT</text><text fill="#0000FF" font-family="Courier" font-size="14" lengthAdjust="spacing" textLength="8.4287" x="508" y="72.292">&#9671;</text><text fill="#000000" font-family="Courier" font-size="14" lengthAdjust="spacing" textLength="92.7158" x="524.8574" y="72.292">set_id:&#160;INT</text><text fill="#000000" font-family="Courier" font-size="14" lengthAdjust="spacing" textLength="118.002" x="508" y="88.5889">set_index:&#160;INT</text></g><!--class SetTable--><g id="elem_SetTable"><rect codeLine="32" fill="#F1F1F1" height="72.5938" id="SetTable" rx="2.5" ry="2.5" style="stroke:#181818;stroke-width:0.5;" width="155.2881" x="733" y="23"/><ellipse cx="773.1363" cy="39" fill="#FFAAAA" rx="11" ry="11" style="stroke:#181818;stroke-width:1.0;"/><path d="M773.98,45.75 L771.5269,45.75 L771.5269,35.5 L768.3863,35.5 L768.3863,33.3594 L777.1207,33.3594 L777.1207,35.5 L773.98,35.5 L773.98,45.75 Z " fill="#000000"/><text fill="#FF0000" font-family="Courier" font-size="14" lengthAdjust="spacing" textLength="67.4297" x="792.7221" y="43.8467">SetTable</text><line style="stroke:#181818;stroke-width:0.5;" x1="734" x2="887.2881" y1="55" y2="55"/><text fill="#FF0000" font-family="Courier" font-size="14" lengthAdjust="spacing" textLength="8.4287" x="739" y="71.9951">&#9670;</text><text fill="#000000" font-family="Courier" font-size="14" lengthAdjust="spacing" textLength="92.7158" x="755.8574" y="71.9951">set_id:&#160;INT</text><text fill="#000000" font-family="Courier" font-size="14" lengthAdjust="spacing" textLength="143.2881" x="739" y="88.292">description:&#160;TEXT</text></g><!--class TuneToSet--><g id="elem_TuneToSet"><rect codeLine="36" fill="#F1F1F1" height="88.8906" id="TuneToSet" rx="2.5" ry="2.5" style="stroke:#181818;stroke-width:0.5;" width="138.4307" x="964" y="7"/><ellipse cx="992.7575" cy="23" fill="#FFAAAA" rx="11" ry="11" style="stroke:#181818;stroke-width:1.0;"/><path d="M993.6013,29.75 L991.1481,29.75 L991.1481,19.5 L988.0075,19.5 L988.0075,17.3594 L996.7419,17.3594 L996.7419,19.5 L993.6013,19.5 L993.6013,29.75 Z " fill="#000000"/><text fill="#FF0000" font-family="Courier" font-size="14" lengthAdjust="spacing" textLength="75.8584" x="1009.8147" y="27.8467">TuneToSet</text><line style="stroke:#181818;stroke-width:0.5;" x1="965" x2="1101.4307" y1="39" y2="39"/><text fill="#0000FF" font-family="Courier" font-size="14" lengthAdjust="spacing" textLength="8.4287" x="970" y="55.9951">&#9671;</text><text fill="#000000" font-family="Courier" font-size="14" lengthAdjust="spacing" textLength="101.1445" x="986.8574" y="55.9951">tune_id:&#160;INT</text><text fill="#0000FF" font-family="Courier" font-size="14" lengthAdjust="spacing" textLength="8.4287" x="970" y="72.292">&#9671;</text><text fill="#000000" font-family="Courier" font-size="14" lengthAdjust="spacing" textLength="92.7158" x="986.8574" y="72.292">set_id:&#160;INT</text><text fill="#000000" font-family="Courier" font-size="14" lengthAdjust="spacing" textLength="126.4307" x="970" y="88.5889">tune_index:&#160;INT</text></g><!--class Tune--><g id="elem_Tune"><rect codeLine="41" fill="#F1F1F1" height="170.375" id="Tune" rx="2.5" ry="2.5" style="stroke:#181818;stroke-width:0.5;" width="214.2891" x="1178" y="7"/><ellipse cx="1264.0371" cy="23" fill="#FFAAAA" rx="11" ry="11" style="stroke:#181818;stroke-width:1.0;"/><path d="M1264.8809,29.75 L1262.4277,29.75 L1262.4277,19.5 L1259.2871,19.5 L1259.2871,17.3594 L1268.0215,17.3594 L1268.0215,19.5 L1264.8809,19.5 L1264.8809,29.75 Z " fill="#000000"/><text fill="#FF0000" font-family="Courier" font-size="14" lengthAdjust="spacing" textLength="33.7148" x="1284.5371" y="27.8467">Tune</text><line style="stroke:#181818;stroke-width:0.5;" x1="1179" x2="1391.2891" y1="39" y2="39"/><text fill="#FF0000" font-family="Courier" font-size="14" lengthAdjust="spacing" textLength="8.4287" x="1184" y="55.9951">&#9670;</text><text fill="#000000" font-family="Courier" font-size="14" lengthAdjust="spacing" textLength="101.1445" x="1200.8574" y="55.9951">tune_id:&#160;INT</text><text fill="#000000" font-family="Courier" font-size="14" lengthAdjust="spacing" textLength="202.2891" x="1184" y="72.292">the_session_tune_id:&#160;INT</text><text fill="#000000" font-family="Courier" font-size="14" lengthAdjust="spacing" textLength="143.2881" x="1184" y="88.5889">name:&#160;VARCHAR_255</text><text fill="#000000" font-family="Courier" font-size="14" lengthAdjust="spacing" textLength="75.8584" x="1184" y="104.8857">abc:&#160;TEXT</text><text fill="#000000" font-family="Courier" font-size="14" lengthAdjust="spacing" textLength="185.4316" x="1184" y="121.1826">tune_type:&#160;VARCHAR_255</text><text fill="#000000" font-family="Courier" font-size="14" lengthAdjust="spacing" textLength="193.8604" x="1184" y="137.4795">tune_meter:&#160;VARCHAR_255</text><text fill="#000000" font-family="Courier" font-size="14" lengthAdjust="spacing" textLength="185.4316" x="1184" y="153.7764">tune_mode:&#160;VARCHAR_255</text><text fill="#000000" font-family="Courier" font-size="14" lengthAdjust="spacing" textLength="177.0029" x="1184" y="170.0732">tune_url:&#160;VARCHAR_255</text></g><!--reverse link Location to Session--><g id="link_Location_Session"><path codeLine="52" d="M200,67 C232.67,67 228.83,67 261.5,67 " fill="none" id="Location-backto-Session" style="stroke:#181818;stroke-width:1.0;"/><polygon fill="none" points="188,67,194,71,200,67,194,63,188,67" style="stroke:#181818;stroke-width:1.0;"/></g><!--reverse link Session to SetToSession--><g id="link_Session_SetToSession"><path codeLine="53" d="M439.5,51 C471.94,51 468.06,51 500.5,51 " fill="none" id="Session-backto-SetToSession" style="stroke:#181818;stroke-width:1.0;"/><polygon fill="none" points="427.5,51,433.5,55,439.5,51,433.5,47,427.5,51" style="stroke:#181818;stroke-width:1.0;"/></g><!--link SetToSession to SetTable--><g id="link_SetToSession_SetTable"><path codeLine="54" d="M658.5,67 C690.94,67 687.06,67 719.5,67 " fill="none" id="SetToSession-to-SetTable" style="stroke:#181818;stroke-width:1.0;"/><polygon fill="none" points="731.5,67,725.5,63,719.5,67,725.5,71,731.5,67" style="stroke:#181818;stroke-width:1.0;"/></g><!--link TuneToSet to Tune--><g id="link_TuneToSet_Tune"><path codeLine="55" d="M1103,51 C1135.89,51 1132.11,51 1165,51 " fill="none" id="TuneToSet-to-Tune" style="stroke:#181818;stroke-width:1.0;"/><polygon fill="none" points="1177,51,1171,47,1165,51,1171,55,1177,51" style="stroke:#181818;stroke-width:1.0;"/></g><!--reverse link SetTable to TuneToSet--><g id="link_SetTable_TuneToSet"><path codeLine="56" d="M901.5,67 C934.17,67 930.33,67 963,67 " fill="none" id="SetTable-backto-TuneToSet" style="stroke:#181818;stroke-width:1.0;"/><polygon fill="none" points="889.5,67,895.5,71,901.5,67,895.5,63,889.5,67" style="stroke:#181818;stroke-width:1.0;"/></g><!--SRC=[bLFDYjim4BxhAIRRFSIqeQMm5nC29jtGGBk7NRFqPXHhiX5hIq4QGzBIQ_i8VRy-IIN_HUiuBDN9_duqdqQZYS2jL0Z4DmLE3n7a1RSM3Z2VmpHzzsQrIjoAOB5WarQwDxBavfWzuz4Rvhakj8aDYiNVFx_cx-lV1Hnw_LORb4zgeDyK5Jh3xz2mhLHEKYjuJEwNdvFxwRNJJmnIPHHSjM1s1M_X-i1OWLi2qc3aquv0I8ErcUsaG2YHTbhOviSI6jHqtADbzbcgFJUyR4wwqegMFW2u0mp9XCZ8JKMuphLwaDyHFWGITpnU5UHtkECbmb9NHg9XhEdb5vrpdoU27mpS2jjMj5mcHHJ3-Ywj5G9jRkJU4p6ajzyQb0jXqDguRyh7cvkePYfJ3D2VRUq7PxXGsZRKoyhX5Ordwso24yRmAKbl6vYueOnawS1q_RK1KOaXT7wqKrHAzI1l6EVLl1Pf6DK1Ik2XWS92_cEyAVJQLNJRf9L27vZ6mf8Z_oDf8p-FwckCnJpVddQOTHrgsHEfkB-3ix7XcpmOhzhbdyQ8ikRSIq9paTJYed5iF5dtAk8uc3FGincqC_22O3ru6eDMV9gQa6H3mdSSPZCDtVLt8EilCexRpjKw3_S86xhgue6pGVy1]--></g></svg>